<svg viewBox="0 0 24 24" fill="#333" xmlns="http://www.w3.org/2000/svg" _ngcontent-qfx-c55="" aria-hidden="true">
  <path d="M11.24 2.419A4.651 4.651 0 0 0 7.36 7 4.647 4.647 0 0 0 12 11.64 4.65 4.65 0 0 0 16.64 7a4.65 4.65 0 0 0-3.899-4.581 5.39 5.39 0 0 0-1.501 0m1.62 1.338c1.12.286 2.08 1.245 2.386 2.383.122.453.122 1.265.001 1.72-.303 1.134-1.251 2.08-2.387 2.386-.453.122-1.265.122-1.72.001-1.133-.303-2.079-1.249-2.386-2.387-.07-.257-.087-.43-.086-.88 0-.492.014-.604.109-.92a3.503 3.503 0 0 1 1.607-2.003c.705-.397 1.648-.511 2.476-.3M7.44 14.386c-2.026.322-3.466 1.619-3.966 3.574-.08.312-.089.461-.102 1.8-.015 1.368-.011 1.469.059 1.597.101.185.297.283.562.283.252 0 .454-.085.555-.233.065-.097.074-.246.095-1.527.023-1.401.024-1.425.132-1.778.356-1.166 1.15-1.961 2.327-2.33l.358-.112h9.08l.358.112c1.177.369 1.971 1.164 2.327 2.33.108.353.109.377.132 1.778.021 1.281.03 1.43.095 1.527.101.148.303.233.555.233.265 0 .461-.098.562-.283.07-.128.074-.229.059-1.597-.016-1.566-.033-1.717-.272-2.359-.44-1.182-1.353-2.158-2.465-2.633a4.436 4.436 0 0 0-.851-.296l-.34-.09-4.58-.006c-2.519-.003-4.625.001-4.68.01" fill-rule="evenodd" _ngcontent-qfx-c55=""></path>
</svg>