<svg viewBox="0 0 24 24" fill="#333" xmlns="http://www.w3.org/2000/svg" _ngcontent-qfx-c57="" aria-hidden="true">
  <path fill-rule="evenodd" clip-rule="evenodd" d="M18.35 21C18.35 20.0887 19.0887 19.35 20 19.35C20.9113 19.35 21.65 20.0887 21.65 21C21.65 21.9113 20.9113 22.65 20 22.65C19.0887 22.65 18.35 21.9113 18.35 21Z" _ngcontent-qfx-c57=""></path>
  <path fill-rule="evenodd" clip-rule="evenodd" d="M7.35 21C7.35 20.0887 8.08873 19.35 9 19.35C9.91127 19.35 10.65 20.0887 10.65 21C10.65 21.9113 9.91127 22.65 9 22.65C8.08873 22.65 7.35 21.9113 7.35 21Z" _ngcontent-qfx-c57=""></path>
  <path fill-rule="evenodd" clip-rule="evenodd" d="M0.334999 0.999991C0.334999 0.632722 0.63273 0.334991 0.999999 0.334991H5C5.31699 0.334991 5.58992 0.558737 5.65209 0.869574L6.54517 5.33499H22.9995C22.9996 5.33499 23 5.33499 23 5.99999L22.9995 5.33499C23.2004 5.33499 23.3909 5.42575 23.5171 5.58192C23.6434 5.7381 23.6923 5.94296 23.6502 6.13933C23.2789 7.87233 23.031 9.35891 22.8285 10.621C22.8032 10.7787 22.7785 10.9334 22.7543 11.085C22.5867 12.1361 22.4425 13.0398 22.273 13.7745C22.0819 14.6026 21.8359 15.3305 21.3998 15.8496C20.9216 16.4189 20.2812 16.665 19.5 16.665V16V15.335C19.9688 15.335 20.2034 15.2061 20.3814 14.9941C20.6016 14.732 20.7931 14.2724 20.977 13.4755C21.1355 12.7888 21.2715 11.9364 21.4409 10.8756C21.4649 10.7247 21.4897 10.5696 21.5153 10.4102C21.6874 9.33802 21.894 8.09148 22.1823 6.66499H6.80749C7.07712 8.07783 7.27659 9.29914 7.44694 10.3422C7.46226 10.4359 7.47733 10.5283 7.49221 10.6192C7.70491 11.919 7.87112 12.8948 8.07787 13.6332C8.28598 14.3765 8.50806 14.771 8.76029 14.9935C8.99229 15.1982 9.33991 15.335 10 15.335H19.5V16V16.665H10C9.16008 16.665 8.44521 16.4892 7.88033 15.9908C7.33569 15.5103 7.02651 14.811 6.79713 13.9918C6.56638 13.1677 6.38883 12.1122 6.17967 10.8339C6.16485 10.7434 6.14986 10.6516 6.13466 10.5586C5.933 9.32394 5.69413 7.8615 5.34791 6.13041L4.45483 1.66499H0.999999C0.63273 1.66499 0.334999 1.36726 0.334999 0.999991Z" _ngcontent-qfx-c57=""></path>
</svg>