<svg xmlns="http://www.w3.org/2000/svg" xmlns:xlink="http://www.w3.org/1999/xlink" version="1.1" id="Layer_1" x="0px" y="0px" viewBox="0 0 269.6 196.1" style="enable-background:new 0 0 269.6 196.1;" xml:space="preserve">
<style type="text/css">
	.st0{fill:#FFFFFF;}
	.st1{fill:#1E1E1C;}
	.st2{fill:#FF0033;}
</style>
<g>
	<path class="st2" d="M83,73.4c0,15-8.2,24.1-19.7,24.1c-3.9,0-7.3-1.2-10.2-3.1v22.1h-17V64.2L31.2,60l21.9-7.7v8.4   c4.5-4.6,9.8-7.6,14.8-7.6C76.5,53.2,83,60.2,83,73.4z M64.8,78.2c0-11.4-2.5-17.1-8.2-17.1c-1.3,0-2.4,0.3-3.6,0.9v31   c1.2,0.9,2.7,1.3,4.2,1.3C61.7,94.2,64.8,88.4,64.8,78.2z"/>
	<path class="st2" d="M91.7,113.1V64.2L86.9,60l21.9-7.7v60.8H91.7z M90.8,41.4c0-5.6,3.4-9.4,9.4-9.4c6,0,9.4,3.8,9.4,9.4   c0,5.7-3.4,9.5-9.4,9.5C94.2,50.9,90.8,47.1,90.8,41.4z"/>
	<path class="st2" d="M119.1,106.7V54.8l-4.8-4.2l21.9-7.7v63.7H119.1z"/>
	<path class="st2" d="M181.1,96c-3.6,5.4-9.3,8.5-17.2,8.5c-12,0-21.9-8.3-21.9-21.5c0-12.4,8.3-22.7,21.9-22.7   c8,0,13.5,4.7,13.5,10.9c0,7.1-5.4,13.3-15.6,17.1c4.8,4.8,11,7.9,16.7,7.9C179.4,96.1,180.2,96.1,181.1,96L181.1,96z M152.6,68.3   c0,7.1,3.7,14.2,8.8,19.5c2.4-3.1,3.3-6.5,3.3-10.8c0-7.4-4.9-13.7-8.6-13.7C153.8,63.2,152.6,65.1,152.6,68.3z"/>
	<path class="st2" d="M215.3,87.1c-3.1,5-8.8,8.7-16.6,8.7c-10.1,0-14.1-6-14.1-17V54.6h-6.5v-0.1L201.6,36v15.2h12v3.4h-12v19.8   c0,9.9,2.3,13.5,8.6,13.5C212.1,87.9,213.5,87.7,215.3,87.1L215.3,87.1z"/>
	<path class="st2" d="M220.4,115.5V80.1l-4.8-4.2l21.9-7.7v47.2H220.4z M219.5,57.3c0-5.6,3.4-9.4,9.4-9.4c6,0,9.4,3.8,9.4,9.4   c0,5.7-3.4,9.5-9.4,9.5C222.9,66.8,219.5,63,219.5,57.3z"/>
	<path class="st2" d="M66.9,158.6v-45.2l-4.8-4.2l21.9-7.7v57H66.9z"/>
	<path class="st2" d="M131.4,155.5c-3.6,5.4-9.3,8.5-17.2,8.5c-12,0-21.9-8.3-21.9-21.5c0-12.4,8.3-22.7,21.9-22.7   c8,0,13.5,4.7,13.5,10.9c0,7.1-5.4,13.3-15.6,17.1c4.8,4.8,11,7.9,16.7,7.9C129.7,155.7,130.5,155.6,131.4,155.5L131.4,155.5z    M102.9,127.8c0,7.1,3.7,14.2,8.8,19.5c2.4-3.1,3.3-6.5,3.3-10.8c0-7.4-4.9-13.7-8.6-13.7C104.1,122.8,102.9,124.7,102.9,127.8z"/>
	<path class="st2" d="M178,115.6l-5.7,4.2l-19,38.8h-2.2l-18-38.8l-5.7-4.2h29.7l-5.7,4.2l7.6,21l8.9-21l-6-4.2H178z"/>
	<path class="st2" d="M183.1,158.7V133l-4.8-4.2l21.9-7.7v37.5H183.1z M182.2,110.2c0-5.6,3.4-9.4,9.4-9.4c6,0,9.4,3.8,9.4,9.4   c0,5.7-3.4,9.5-9.4,9.5C185.6,119.7,182.2,115.9,182.2,110.2z"/>
</g>
</svg>